<?xml version="1.0" encoding="utf-8"?>
<!-- Generator: Adobe Illustrator 26.0.3, SVG Export Plug-In . SVG Version: 6.00 Build 0)  -->
<svg version="1.1" id="Layer_1" xmlns="http://www.w3.org/2000/svg" xmlns:xlink="http://www.w3.org/1999/xlink" x="0px" y="0px"
	 viewBox="0 0 288 560" style="enable-background:new 0 0 288 560;" xml:space="preserve">
<g>
	<g>
		<path d="M138.29,287.64v24.63c0,9.22,0.22,15.26,0.65,18.11c0.43,2.85,1.6,4.97,3.5,6.35c1.9,1.38,5.47,2.07,10.72,2.07h3.89v3.98
			h-53.67v-3.98h3.11c5.01,0,8.48-0.63,10.42-1.9c1.93-1.27,3.15-3.24,3.67-5.92s0.78-8.92,0.78-18.71v-57.48
			c0-9.33-0.26-15.36-0.78-18.06s-1.67-4.58-3.46-5.62c-1.79-1.04-5.65-1.56-11.58-1.56h-2.16l-6.61-4.12l21.3-0.37
			c11.75-0.4,20.92-0.61,27.49-0.61c12.1,0,21.42,0.95,27.96,2.85s11.9,5.27,16.08,10.11c4.18,4.84,6.27,10.95,6.27,18.32
			c0,6.4-1.43,12.04-4.28,16.94c-2.85,4.9-6.94,8.61-12.27,11.15s-14.71,3.8-28.13,3.8H138.29z M138.29,283.32h8.38
			c6.74,0,12.19-0.68,16.34-2.03c4.15-1.35,7.61-4.19,10.37-8.51c2.77-4.32,4.15-9.65,4.15-15.99c0-9.68-2.38-16.78-7.13-21.31
			c-4.75-4.52-12.46-6.78-23.12-6.78c-3.92,0-6.91,0.12-8.99,0.35V283.32z"/>
	</g>
	<path d="M97.74,221.26c1.5,1.82,0.53,3.41-0.74,4.07c-1.27,0.65-3.23,0.5-3.76-1.8c-0.47-2.05-1.42-5.15-0.14-5.8
		C94.36,217.08,96.36,219.6,97.74,221.26z"/>
	<path d="M104.88,221.44c0.88,2.19-0.52,3.42-1.93,3.65c-1.41,0.24-3.23-0.5-3.04-2.85c0.17-2.1,0.21-5.33,1.61-5.57
		C102.93,216.44,104.08,219.44,104.88,221.44z"/>
	<path d="M111.22,221.44c0.88,2.19-0.52,3.42-1.93,3.65c-1.41,0.24-3.23-0.5-3.04-2.85c0.17-2.1,0.21-5.33,1.61-5.57
		C109.27,216.44,110.42,219.44,111.22,221.44z"/>
	<path d="M99.36,231.46c0.63-2.27,2.49-2.39,3.76-1.73c1.26,0.67,2.26,2.36,0.68,4.12c-1.41,1.56-3.4,4.11-4.67,3.44
		C97.87,236.63,98.78,233.54,99.36,231.46z"/>
</g>
</svg>
