<?xml version="1.0" encoding="utf-8"?>
<!-- Generator: Adobe Illustrator 26.0.3, SVG Export Plug-In . SVG Version: 6.00 Build 0)  -->
<svg version="1.1" id="Layer_1" xmlns="http://www.w3.org/2000/svg" xmlns:xlink="http://www.w3.org/1999/xlink" x="0px" y="0px"
	 viewBox="0 0 108 129" style="enable-background:new 0 0 108 129;" xml:space="preserve">
<style type="text/css">
	.st0{fill:#020203;}
</style>
<g>
	<g>
		<path class="st0" d="M48.14,72.39v24.63c0,9.22,0.22,15.26,0.65,18.11c0.43,2.85,1.6,4.97,3.5,6.35s5.47,2.07,10.72,2.07h3.89
			v3.98H13.22v-3.98h3.11c5.01,0,8.48-0.63,10.42-1.9s3.15-3.24,3.67-5.92c0.52-2.68,0.78-8.92,0.78-18.71V39.54
			c0-9.33-0.26-15.36-0.78-18.06c-0.52-2.71-1.67-4.58-3.46-5.62s-5.65-1.56-11.58-1.56h-2.16l-6.61-4.12l21.3-0.37
			c11.75-0.4,20.92-0.61,27.49-0.61c12.1,0,21.42,0.95,27.96,2.85c6.54,1.9,11.9,5.27,16.08,10.11c4.18,4.84,6.27,10.95,6.27,18.32
			c0,6.4-1.43,12.04-4.28,16.94s-6.94,8.61-12.27,11.15s-14.71,3.8-28.13,3.8H48.14z M48.14,68.07h8.38
			c6.74,0,12.19-0.68,16.34-2.03s7.61-4.19,10.37-8.51s4.15-9.65,4.15-15.99c0-9.68-2.38-16.78-7.13-21.31
			c-4.75-4.52-12.46-6.78-23.12-6.78c-3.92,0-6.91,0.12-8.99,0.35V68.07z"/>
	</g>
	<path class="st0" d="M7.58,6.01c1.5,1.82,0.53,3.41-0.74,4.07c-1.27,0.65-3.23,0.5-3.76-1.8c-0.47-2.05-1.42-5.15-0.14-5.8
		C4.21,1.83,6.21,4.35,7.58,6.01z"/>
	<path class="st0" d="M14.73,6.2c0.88,2.19-0.52,3.42-1.93,3.65C11.39,10.09,9.56,9.35,9.76,7c0.17-2.1,0.21-5.33,1.61-5.57
		C12.78,1.19,13.93,4.2,14.73,6.2z"/>
	<path class="st0" d="M21.07,6.2c0.88,2.19-0.52,3.42-1.93,3.65c-1.41,0.24-3.23-0.5-3.04-2.85c0.17-2.1,0.21-5.33,1.61-5.57
		C19.12,1.19,20.27,4.2,21.07,6.2z"/>
	<path class="st0" d="M9.21,16.22c0.63-2.27,2.49-2.39,3.76-1.73c1.26,0.67,2.26,2.36,0.68,4.12c-1.41,1.56-3.4,4.11-4.67,3.44
		C7.72,21.38,8.63,18.29,9.21,16.22z"/>
</g>
</svg>
